<svg xmlns="http://www.w3.org/2000/svg" viewBox="0 0 960 640" role="img" aria-labelledby="title desc">
  <title id="title">Ilustração de capa para reconstrução cutânea por enxertia</title>
  <desc id="desc">Painel visual com blocos informativos em tons cirúrgicos suaves.</desc>
  <defs>
    <linearGradient id="bg" x1="0" y1="0" x2="1" y2="1">
      <stop offset="0%" stop-color="#edf3f0" />
      <stop offset="100%" stop-color="#f8efe6" />
    </linearGradient>
  </defs>
  <rect width="960" height="640" fill="url(#bg)" />
  <circle cx="172" cy="126" r="92" fill="#dcece7" />
  <circle cx="816" cy="118" r="112" fill="#f6e6de" />
  <rect x="92" y="96" width="780" height="454" rx="42" fill="#ffffff" stroke="#d9e7e2" />
  <text x="146" y="202" font-family="Georgia, serif" font-size="48" fill="#1e2d2c">Reconstrução cutânea</text>
  <text x="146" y="258" font-family="Georgia, serif" font-size="48" fill="#1e2d2c">por enxertia</text>
  <rect x="146" y="300" width="540" height="22" rx="11" fill="#667b7b" />
  <rect x="146" y="340" width="470" height="18" rx="9" fill="#667b7b" opacity="0.76" />
  <rect x="146" y="394" width="332" height="74" rx="37" fill="#1c5c59" />
  <text x="204" y="440" font-family="Georgia, serif" font-size="30" fill="#ffffff">Integração do enxerto</text>
  <path d="M706 226c48-22 96 18 96 70 0 74-80 120-120 164-40-44-120-90-120-164 0-52 48-92 96-70 14 6 24 14 24 14s10-8 24-14Z" fill="#b85042" opacity="0.9" />
</svg>
